<mxfile host="app.diagrams.net" modified="2020-08-28T08:58:06.678Z" agent="5.0 (Windows)" etag="tggDqJuSI8icjIG-6IQf" version="13.6.5" type="github">
  <diagram id="_i5tw5VFnepK4uj0loci" name="Page-1">
    <mxGraphModel dx="1038" dy="547" grid="1" gridSize="10" guides="1" tooltips="1" connect="1" arrows="1" fold="1" page="1" pageScale="1" pageWidth="1169" pageHeight="827" math="0" shadow="0">
      <root>
        <mxCell id="0" />
        <mxCell id="1" parent="0" />
        <mxCell id="nIxTk6IBF3q7s64wz2rx-5" value="Contract /MOU Management and Tracking" style="swimlane;html=1;childLayout=stackLayout;resizeParent=1;resizeParentMax=0;horizontal=1;startSize=20;horizontalStack=0;" vertex="1" parent="1">
          <mxGeometry x="40" y="40" width="1129" height="560" as="geometry" />
        </mxCell>
        <mxCell id="nIxTk6IBF3q7s64wz2rx-6" value="User" style="swimlane;html=1;startSize=20;horizontal=0;" vertex="1" parent="nIxTk6IBF3q7s64wz2rx-5">
          <mxGeometry y="20" width="1129" height="150" as="geometry" />
        </mxCell>
        <mxCell id="nIxTk6IBF3q7s64wz2rx-10" value="Start" style="rounded=1;whiteSpace=wrap;html=1;" vertex="1" parent="nIxTk6IBF3q7s64wz2rx-6">
          <mxGeometry x="60" y="10" width="120" height="40" as="geometry" />
        </mxCell>
        <mxCell id="nIxTk6IBF3q7s64wz2rx-45" value="End" style="rounded=1;whiteSpace=wrap;html=1;" vertex="1" parent="nIxTk6IBF3q7s64wz2rx-6">
          <mxGeometry x="1020" y="88" width="100" height="40" as="geometry" />
        </mxCell>
        <mxCell id="nIxTk6IBF3q7s64wz2rx-39" value="Quarterly review of contract to ensure proper implemetation" style="whiteSpace=wrap;html=1;rounded=0;" vertex="1" parent="nIxTk6IBF3q7s64wz2rx-6">
          <mxGeometry x="820" y="78" width="120" height="60" as="geometry" />
        </mxCell>
        <mxCell id="nIxTk6IBF3q7s64wz2rx-24" value="Review changes withing 7 days" style="whiteSpace=wrap;html=1;rounded=0;" vertex="1" parent="nIxTk6IBF3q7s64wz2rx-6">
          <mxGeometry x="470" y="78" width="120" height="60" as="geometry" />
        </mxCell>
        <mxCell id="nIxTk6IBF3q7s64wz2rx-12" value="draft contract, mou, terms of engagement, concept/brief" style="shape=parallelogram;perimeter=parallelogramPerimeter;whiteSpace=wrap;html=1;fixedSize=1;" vertex="1" parent="nIxTk6IBF3q7s64wz2rx-6">
          <mxGeometry x="250" y="78" width="180" height="60" as="geometry" />
        </mxCell>
        <mxCell id="nIxTk6IBF3q7s64wz2rx-11" value="Express intention to enter into contract/MOU" style="rounded=0;whiteSpace=wrap;html=1;" vertex="1" parent="nIxTk6IBF3q7s64wz2rx-6">
          <mxGeometry x="60" y="78" width="120" height="60" as="geometry" />
        </mxCell>
        <mxCell id="nIxTk6IBF3q7s64wz2rx-14" value="" style="edgeStyle=orthogonalEdgeStyle;rounded=0;orthogonalLoop=1;jettySize=auto;html=1;entryX=1;entryY=0.5;entryDx=0;entryDy=0;" edge="1" parent="nIxTk6IBF3q7s64wz2rx-6" source="nIxTk6IBF3q7s64wz2rx-12" target="nIxTk6IBF3q7s64wz2rx-11">
          <mxGeometry relative="1" as="geometry">
            <mxPoint x="190" y="108" as="targetPoint" />
          </mxGeometry>
        </mxCell>
        <mxCell id="nIxTk6IBF3q7s64wz2rx-17" value="" style="endArrow=classic;html=1;exitX=0.5;exitY=1;exitDx=0;exitDy=0;entryX=0.5;entryY=0;entryDx=0;entryDy=0;" edge="1" parent="nIxTk6IBF3q7s64wz2rx-6" source="nIxTk6IBF3q7s64wz2rx-10" target="nIxTk6IBF3q7s64wz2rx-11">
          <mxGeometry width="50" height="50" relative="1" as="geometry">
            <mxPoint x="220" y="140" as="sourcePoint" />
            <mxPoint x="270" y="90" as="targetPoint" />
          </mxGeometry>
        </mxCell>
        <mxCell id="nIxTk6IBF3q7s64wz2rx-35" value="Performance and implementation of the contract" style="whiteSpace=wrap;html=1;rounded=0;" vertex="1" parent="nIxTk6IBF3q7s64wz2rx-6">
          <mxGeometry x="649" y="78" width="120" height="60" as="geometry" />
        </mxCell>
        <mxCell id="nIxTk6IBF3q7s64wz2rx-40" value="" style="edgeStyle=orthogonalEdgeStyle;rounded=0;orthogonalLoop=1;jettySize=auto;html=1;" edge="1" parent="nIxTk6IBF3q7s64wz2rx-6" source="nIxTk6IBF3q7s64wz2rx-35" target="nIxTk6IBF3q7s64wz2rx-39">
          <mxGeometry relative="1" as="geometry" />
        </mxCell>
        <mxCell id="nIxTk6IBF3q7s64wz2rx-7" value="CS" style="swimlane;html=1;startSize=20;horizontal=0;" vertex="1" parent="nIxTk6IBF3q7s64wz2rx-5">
          <mxGeometry y="170" width="1129" height="128" as="geometry" />
        </mxCell>
        <mxCell id="nIxTk6IBF3q7s64wz2rx-41" value="Quarterly review of contract to ensure legal validity" style="shape=process;whiteSpace=wrap;html=1;backgroundOutline=1;rounded=0;" vertex="1" parent="nIxTk6IBF3q7s64wz2rx-7">
          <mxGeometry x="800" y="40" width="160" height="60" as="geometry" />
        </mxCell>
        <mxCell id="nIxTk6IBF3q7s64wz2rx-26" value="Prepare a forwarding memo to CEO within 5 days" style="whiteSpace=wrap;html=1;rounded=0;" vertex="1" parent="nIxTk6IBF3q7s64wz2rx-7">
          <mxGeometry x="470" y="50" width="120" height="60" as="geometry" />
        </mxCell>
        <mxCell id="nIxTk6IBF3q7s64wz2rx-22" value="AG comments are incorporated within 5days" style="whiteSpace=wrap;html=1;rounded=0;" vertex="1" parent="nIxTk6IBF3q7s64wz2rx-7">
          <mxGeometry x="250" y="50" width="120" height="60" as="geometry" />
        </mxCell>
        <mxCell id="nIxTk6IBF3q7s64wz2rx-18" value="Review draft MOU/Contract and propose changes within 7 days" style="whiteSpace=wrap;html=1;rounded=0;" vertex="1" parent="nIxTk6IBF3q7s64wz2rx-7">
          <mxGeometry x="60" y="50" width="120" height="60" as="geometry" />
        </mxCell>
        <mxCell id="nIxTk6IBF3q7s64wz2rx-8" value="AG/CS" style="swimlane;html=1;startSize=20;horizontal=0;" vertex="1" parent="nIxTk6IBF3q7s64wz2rx-5">
          <mxGeometry y="298" width="1129" height="122" as="geometry" />
        </mxCell>
        <mxCell id="nIxTk6IBF3q7s64wz2rx-20" value="Attorney General reviews and comments" style="whiteSpace=wrap;html=1;rounded=0;" vertex="1" parent="nIxTk6IBF3q7s64wz2rx-8">
          <mxGeometry x="60" y="50" width="120" height="50" as="geometry" />
        </mxCell>
        <mxCell id="nIxTk6IBF3q7s64wz2rx-9" value="CEO" style="swimlane;html=1;startSize=20;horizontal=0;" vertex="1" parent="nIxTk6IBF3q7s64wz2rx-5">
          <mxGeometry y="420" width="1129" height="140" as="geometry" />
        </mxCell>
        <mxCell id="nIxTk6IBF3q7s64wz2rx-34" value="yes" style="text;html=1;strokeColor=none;fillColor=none;align=center;verticalAlign=middle;whiteSpace=wrap;rounded=0;" vertex="1" parent="nIxTk6IBF3q7s64wz2rx-9">
          <mxGeometry x="609" y="47" width="40" height="20" as="geometry" />
        </mxCell>
        <mxCell id="nIxTk6IBF3q7s64wz2rx-32" value="Sign MOU/Contract and keep custody of document with a copy to user and CS" style="whiteSpace=wrap;html=1;rounded=0;" vertex="1" parent="nIxTk6IBF3q7s64wz2rx-9">
          <mxGeometry x="649" y="40" width="120" height="60" as="geometry" />
        </mxCell>
        <mxCell id="nIxTk6IBF3q7s64wz2rx-30" value="Approved?" style="rhombus;whiteSpace=wrap;html=1;rounded=0;" vertex="1" parent="nIxTk6IBF3q7s64wz2rx-9">
          <mxGeometry x="540" y="30" width="80" height="80" as="geometry" />
        </mxCell>
        <mxCell id="nIxTk6IBF3q7s64wz2rx-28" value="Review of CS memo and comments within 5 days " style="whiteSpace=wrap;html=1;rounded=0;" vertex="1" parent="nIxTk6IBF3q7s64wz2rx-9">
          <mxGeometry x="380" y="40" width="120" height="60" as="geometry" />
        </mxCell>
        <mxCell id="nIxTk6IBF3q7s64wz2rx-31" value="" style="edgeStyle=orthogonalEdgeStyle;rounded=0;orthogonalLoop=1;jettySize=auto;html=1;" edge="1" parent="nIxTk6IBF3q7s64wz2rx-9" source="nIxTk6IBF3q7s64wz2rx-28" target="nIxTk6IBF3q7s64wz2rx-30">
          <mxGeometry relative="1" as="geometry" />
        </mxCell>
        <mxCell id="nIxTk6IBF3q7s64wz2rx-33" value="" style="edgeStyle=orthogonalEdgeStyle;rounded=0;orthogonalLoop=1;jettySize=auto;html=1;" edge="1" parent="nIxTk6IBF3q7s64wz2rx-9" source="nIxTk6IBF3q7s64wz2rx-30" target="nIxTk6IBF3q7s64wz2rx-32">
          <mxGeometry relative="1" as="geometry" />
        </mxCell>
        <mxCell id="nIxTk6IBF3q7s64wz2rx-51" value="no" style="text;html=1;strokeColor=none;fillColor=none;align=center;verticalAlign=middle;whiteSpace=wrap;rounded=0;" vertex="1" parent="nIxTk6IBF3q7s64wz2rx-9">
          <mxGeometry x="890" y="96" width="40" height="20" as="geometry" />
        </mxCell>
        <mxCell id="nIxTk6IBF3q7s64wz2rx-19" value="" style="edgeStyle=orthogonalEdgeStyle;rounded=0;orthogonalLoop=1;jettySize=auto;html=1;" edge="1" parent="nIxTk6IBF3q7s64wz2rx-5" source="nIxTk6IBF3q7s64wz2rx-11" target="nIxTk6IBF3q7s64wz2rx-18">
          <mxGeometry relative="1" as="geometry" />
        </mxCell>
        <mxCell id="nIxTk6IBF3q7s64wz2rx-21" value="" style="edgeStyle=orthogonalEdgeStyle;rounded=0;orthogonalLoop=1;jettySize=auto;html=1;" edge="1" parent="nIxTk6IBF3q7s64wz2rx-5" source="nIxTk6IBF3q7s64wz2rx-18" target="nIxTk6IBF3q7s64wz2rx-20">
          <mxGeometry relative="1" as="geometry" />
        </mxCell>
        <mxCell id="nIxTk6IBF3q7s64wz2rx-23" value="" style="edgeStyle=orthogonalEdgeStyle;rounded=0;orthogonalLoop=1;jettySize=auto;html=1;" edge="1" parent="nIxTk6IBF3q7s64wz2rx-5" source="nIxTk6IBF3q7s64wz2rx-20" target="nIxTk6IBF3q7s64wz2rx-22">
          <mxGeometry relative="1" as="geometry" />
        </mxCell>
        <mxCell id="nIxTk6IBF3q7s64wz2rx-25" value="" style="edgeStyle=orthogonalEdgeStyle;rounded=0;orthogonalLoop=1;jettySize=auto;html=1;" edge="1" parent="nIxTk6IBF3q7s64wz2rx-5" source="nIxTk6IBF3q7s64wz2rx-22" target="nIxTk6IBF3q7s64wz2rx-24">
          <mxGeometry relative="1" as="geometry">
            <Array as="points">
              <mxPoint x="440" y="250" />
              <mxPoint x="440" y="128" />
            </Array>
          </mxGeometry>
        </mxCell>
        <mxCell id="nIxTk6IBF3q7s64wz2rx-27" value="" style="edgeStyle=orthogonalEdgeStyle;rounded=0;orthogonalLoop=1;jettySize=auto;html=1;" edge="1" parent="nIxTk6IBF3q7s64wz2rx-5" source="nIxTk6IBF3q7s64wz2rx-24" target="nIxTk6IBF3q7s64wz2rx-26">
          <mxGeometry relative="1" as="geometry" />
        </mxCell>
        <mxCell id="nIxTk6IBF3q7s64wz2rx-29" value="" style="edgeStyle=orthogonalEdgeStyle;rounded=0;orthogonalLoop=1;jettySize=auto;html=1;" edge="1" parent="nIxTk6IBF3q7s64wz2rx-5" source="nIxTk6IBF3q7s64wz2rx-26" target="nIxTk6IBF3q7s64wz2rx-28">
          <mxGeometry relative="1" as="geometry" />
        </mxCell>
        <mxCell id="nIxTk6IBF3q7s64wz2rx-36" value="" style="edgeStyle=orthogonalEdgeStyle;rounded=0;orthogonalLoop=1;jettySize=auto;html=1;" edge="1" parent="nIxTk6IBF3q7s64wz2rx-5" source="nIxTk6IBF3q7s64wz2rx-32" target="nIxTk6IBF3q7s64wz2rx-35">
          <mxGeometry relative="1" as="geometry" />
        </mxCell>
        <mxCell id="nIxTk6IBF3q7s64wz2rx-43" value="" style="edgeStyle=orthogonalEdgeStyle;rounded=0;orthogonalLoop=1;jettySize=auto;html=1;" edge="1" parent="nIxTk6IBF3q7s64wz2rx-5" source="nIxTk6IBF3q7s64wz2rx-41" target="nIxTk6IBF3q7s64wz2rx-39">
          <mxGeometry relative="1" as="geometry" />
        </mxCell>
        <mxCell id="nIxTk6IBF3q7s64wz2rx-50" value="" style="edgeStyle=orthogonalEdgeStyle;rounded=0;orthogonalLoop=1;jettySize=auto;html=1;entryX=0.5;entryY=1;entryDx=0;entryDy=0;" edge="1" parent="nIxTk6IBF3q7s64wz2rx-5" source="nIxTk6IBF3q7s64wz2rx-30" target="nIxTk6IBF3q7s64wz2rx-45">
          <mxGeometry relative="1" as="geometry">
            <mxPoint x="1000" y="460" as="targetPoint" />
            <Array as="points">
              <mxPoint x="580" y="540" />
              <mxPoint x="1070" y="540" />
            </Array>
          </mxGeometry>
        </mxCell>
        <mxCell id="nIxTk6IBF3q7s64wz2rx-48" value="" style="edgeStyle=orthogonalEdgeStyle;rounded=0;orthogonalLoop=1;jettySize=auto;html=1;" edge="1" parent="1" source="nIxTk6IBF3q7s64wz2rx-39">
          <mxGeometry relative="1" as="geometry">
            <mxPoint x="1060" y="168" as="targetPoint" />
          </mxGeometry>
        </mxCell>
      </root>
    </mxGraphModel>
  </diagram>
</mxfile>
